<?xml version="1.0" encoding="UTF-8"?>
<svg width="336px" height="297px" viewBox="0 0 336 297" version="1.1" xmlns="http://www.w3.org/2000/svg" xmlns:xlink="http://www.w3.org/1999/xlink">
    <!-- Generator: Sketch 41.2 (35397) - http://www.bohemiancoding.com/sketch -->
    <title>Shield</title>
    <desc>Created with Sketch.</desc>
    <defs></defs>
    <g id="Page-1" stroke="none" stroke-width="1" fill="none" fill-rule="evenodd">
        <g id="Logo" fill="#FFFFFF">
            <path d="M59.0493645,0.0356393014 C55.3421081,0.00283172231 50.9759223,2.01791589 48.6000041,4.85970042 L2.72810197,59.7260932 C0.17190473,62.7835056 -0.699649514,67.7068961 0.650634003,71.4576836 L51.9404919,213.929511 C53.037975,216.978075 55.7574057,220.533462 58.4098322,222.39016 L161.855544,294.802159 C165.386033,297.273501 170.616494,297.271732 174.144456,294.802159 L277.590168,222.39016 C280.245989,220.531085 282.961292,216.98011 284.059508,213.929511 L335.349366,71.4576836 C336.704335,67.6938808 335.809274,62.7612611 333.219295,59.7142265 L287.400098,5.80928934 C285.019903,3.00905953 280.669756,1 276.994882,1 L172.005118,1 C169.8095,1 166.233322,0.984169896 164.039128,0.964752249 L59.0493645,0.0356393014 Z M58.9608724,10.0352478 L163.950635,10.9643607 C166.17432,10.9840393 169.779996,11 172.005118,11 L276.994882,11 C277.285544,11 277.875019,11.1490173 278.487497,11.4318821 C279.099544,11.7145482 279.593762,12.0658408 279.780705,12.2857735 L325.599902,66.1907107 C325.869542,66.5079349 326.081835,67.677868 325.940492,68.0704889 L274.650634,210.542316 C274.251765,211.650287 272.819958,213.522751 271.855544,214.197841 L168.409832,286.60984 C168.323966,286.669946 64.1444557,214.197841 64.1444557,214.197841 C63.1830537,213.52486 61.7473444,211.647812 61.349366,210.542316 L10.0595081,68.0704889 C9.91270638,67.6627063 10.1237083,66.4707612 10.3999959,66.1402996 L56.271898,11.2739068 C56.4474028,11.0639893 56.9236328,10.7226879 57.516974,10.4488487 C58.1115132,10.1744567 58.6827537,10.0327865 58.9608724,10.0352478 Z" id="Shield"></path>
            <path d="M209,137 L234,71 C234.875386,68.6871277 237.272862,67 239,67 L261,67 C263.370448,67 264.530529,68.6849631 264,71 L226,174" id="W"></path>
            <path d="M71.8732163,137 L96.8732163,71 C97.7486026,68.6871277 100.146078,67 101.873216,67 L123.873216,67 C126.243664,67 127.403745,68.6849631 126.873216,71 L88.8732163,174" id="W" transform="translate(99.436608, 120.500000) scale(-1, 1) translate(-99.436608, -120.500000) "></path>
            <path d="M166,70 C167,68 167,67 168.5,67 C170,67 170,68 171,70 L222,182 L212,209 C211.225738,211.322864 210.010864,211.998368 209,212 C207.989136,211.998368 207.044298,211.372471 206,209 L170,131 C168.956144,129.426154 167.436665,129.42902 167,131 L130,210 C128.958072,211.579889 128.407174,212.031218 127,212 C125.592826,211.965518 124.979574,211.51633 124,209 L114,182" id="W"></path>
        </g>
    </g>
</svg>